<?xml version="1.0" encoding="UTF-8"?>
<svg xmlns="http://www.w3.org/2000/svg" width="720" height="200" viewBox="0 0 720 200" role="img" aria-label="Clayshan – 925 Silver">
  <defs>
    <linearGradient id="silver" x1="0%" y1="0%" x2="100%" y2="100%">
      <stop offset="0%" stop-color="#f5f7fa"/>
      <stop offset="50%" stop-color="#cdd3da"/>
      <stop offset="100%" stop-color="#a7adb7"/>
    </linearGradient>
  </defs>
  <!-- Left coin mark -->
  <g transform="translate(20 20)">
    <circle cx="60" cy="60" r="60" fill="url(#silver)"/>
    <circle cx="60" cy="60" r="54" fill="none" stroke="#ffffff" stroke-opacity="0.7" stroke-width="2"/>
    <path d="M60 23c-20.4 0-37 16.6-37 37s16.6 37 37 37c8.3 0 16-2.7 22.1-7.3 2.3-1.7 2.8-4.9 1.1-7.2-1.7-2.3-4.9-2.8-7.2-1.1-4.5 3.4-10.2 5.4-16.1 5.4-14.9 0-27-12.1-27-27s12.1-27 27-27c5.9 0 11.6 1.9 16.1 5.4 2.3 1.7 5.5 1.2 7.2-1.1 1.7-2.3 1.2-5.5-1.1-7.2C76 25.7 68.3 23 60 23z" fill="#121212" fill-opacity="0.75"/>
    <text x="60" y="70" text-anchor="middle" font-family="'Inter', system-ui, -apple-system, Segoe UI, Roboto, Arial, sans-serif" font-size="20" fill="#121212" font-weight="700">925</text>
  </g>

  <!-- Wordmark right -->
  <g transform="translate(160 35)">
    <text x="0" y="0" font-family="'Playfair Display', Georgia, 'Times New Roman', serif" font-size="64" font-weight="700" fill="#121212">Clayshan</text>
    <rect x="0" y="18" width="18" height="2" fill="#d4af37"/>
    <text x="0" y="56" font-family="'Inter', system-ui, -apple-system, Segoe UI, Roboto, Arial, sans-serif" font-size="18" fill="#4b4f57" letter-spacing="4">S I L V E R</text>
  </g>
</svg>

